<?xml version="1.0" encoding="UTF-8"?>
<svg width="64px" height="64px" viewBox="0 0 64 64" version="1.1" xmlns="http://www.w3.org/2000/svg" xmlns:xlink="http://www.w3.org/1999/xlink">
    <!-- Generator: Sketch 55 (78076) - https://sketchapp.com -->
    <title>logo-game-of-life</title>
    <desc>Created with Sketch.</desc>
    <g id="logo-game-of-life" stroke="none" stroke-width="1" fill="none" fill-rule="evenodd">
        <circle id="Oval" fill="#2286C3" cx="32" cy="32" r="30"></circle>
        <g id="keyboard-buttons-or-visualization-button-of-nine-squares" transform="translate(13.000000, 13.000000)" fill-rule="nonzero">
            <path d="M10.3720665,1.18012422 C10.3720665,0.527122153 9.84330218,0 9.18826584,0 L1.21734164,0 C0.562305296,0 0.0335410177,0.527122153 0.0335410177,1.18012422 L0.0335410177,9.13022774 C0.0335410177,9.78322981 0.562305296,10.310352 1.21734164,10.310352 L9.19221184,10.310352 C9.84724818,10.310352 10.3760125,9.78322981 10.3760125,9.13022774 L10.3760125,1.18012422 L10.3720665,1.18012422 Z" id="Path" fill="#9BE7FF"></path>
            <path d="M24.1712357,1.18012422 C24.1712357,0.527122153 23.6424714,0 22.9874351,0 L15.0165109,0 C14.3614746,0 13.8327103,0.527122153 13.8327103,1.18012422 L13.8327103,9.13022774 C13.8327103,9.78322981 14.3614746,10.310352 15.0165109,10.310352 L22.9874351,10.310352 C23.6424714,10.310352 24.1712357,9.78322981 24.1712357,9.13022774 L24.1712357,1.18012422 Z" id="Path" fill="#FF6090"></path>
            <path d="M37.970405,1.18012422 C37.970405,0.527122153 37.4416407,0 36.7866044,0 L28.8156802,0 C28.1606044,0 27.6318795,0.527122153 27.6318795,1.18012422 L27.6318795,9.13022774 C27.6318795,9.78322981 28.1606044,10.310352 28.8156802,10.310352 L36.7905504,10.310352 C37.4456262,10.310352 37.974351,9.78322981 37.974351,9.13022774 L37.974351,1.18012422 L37.970405,1.18012422 Z" id="Path" fill="#9BE7FF"></path>
            <path d="M10.3720665,15.0111801 C10.3720665,14.3581781 9.84330218,13.8310559 9.18826584,13.8310559 L1.21734164,13.8310559 C0.562305296,13.8310559 0.0335410177,14.3581781 0.0335410177,15.0111801 L0.0335410177,22.9573499 C0.0335410177,23.610352 0.562305296,24.1374741 1.21734164,24.1374741 L9.19221184,24.1374741 C9.84724818,24.1374741 10.3760125,23.610352 10.3760125,22.9573499 L10.3760125,15.0111801 L10.3720665,15.0111801 Z" id="Path" fill="#9BE7FF"></path>
            <path d="M24.1712357,15.0111801 C24.1712357,14.3581781 23.6424714,13.8310559 22.9874351,13.8310559 L15.0165109,13.8310559 C14.3614746,13.8310559 13.8327103,14.3581781 13.8327103,15.0111801 L13.8327103,22.9573499 C13.8327103,23.610352 14.3614746,24.1374741 15.0165109,24.1374741 L22.9874351,24.1374741 C23.6424714,24.1374741 24.1712357,23.610352 24.1712357,22.9573499 L24.1712357,15.0111801 Z" id="Path" fill="#9BE7FF"></path>
            <path d="M37.970405,15.0111801 C37.970405,14.3581781 37.4416407,13.8310559 36.7866044,13.8310559 L28.8156802,13.8310559 C28.1606044,13.8310559 27.6318795,14.3581781 27.6318795,15.0111801 L27.6318795,22.9573499 C27.6318795,23.610352 28.1606044,24.1374741 28.8156802,24.1374741 L36.7905504,24.1374741 C37.4456262,24.1374741 37.974351,23.610352 37.974351,22.9573499 L37.974351,15.0111801 L37.970405,15.0111801 Z" id="Path" fill="#FF6090"></path>
            <path d="M9.18826584,27.6581781 L1.21734164,27.6581781 C0.562305296,27.6581781 0.0335410177,28.1853002 0.0335410177,28.8383023 L0.0335410177,36.7884058 C0.0335410177,37.4414865 0.562305296,37.96853 1.21734164,37.96853 L9.19221184,37.96853 C9.84724818,37.96853 10.3760125,37.4414865 10.3760125,36.7884058 L10.3760125,28.8383023 C10.3720665,28.189234 9.84330218,27.6581781 9.18826584,27.6581781 Z" id="Path" fill="#FF6090"></path>
            <path d="M22.9874351,27.6581781 L15.0165109,27.6581781 C14.3614746,27.6581781 13.8327103,28.1853002 13.8327103,28.8383023 L13.8327103,36.7884058 C13.8327103,37.4414865 14.3614746,37.96853 15.0165109,37.96853 L22.9874351,37.96853 C23.6424714,37.96853 24.1712357,37.4414865 24.1712357,36.7884058 L24.1712357,28.8383023 C24.1712357,28.189234 23.642432,27.6581781 22.9874351,27.6581781 Z" id="Path" fill="#9BE7FF"></path>
            <path d="M36.7866044,27.6581781 L28.8156802,27.6581781 C28.1606044,27.6581781 27.6318795,28.1853002 27.6318795,28.8383023 L27.6318795,36.7884058 C27.6318795,37.4414865 28.1606044,37.96853 28.8156802,37.96853 L36.7905504,37.96853 C37.4456262,37.96853 37.974351,37.4414865 37.974351,36.7884058 L37.974351,28.8383023 C37.970405,28.189234 37.4416407,27.6581781 36.7866044,27.6581781 Z" id="Path" fill="#9BE7FF"></path>
        </g>
    </g>
</svg>