<?xml version="1.0" encoding="UTF-8"?>
<svg width="32px" height="32px" viewBox="0 0 32 32" version="1.1" xmlns="http://www.w3.org/2000/svg" xmlns:xlink="http://www.w3.org/1999/xlink">
    <!-- Generator: Sketch 54.1 (76490) - https://sketchapp.com -->
    <title>ant</title>
    <desc>Created with Sketch.</desc>
    <g id="ant" stroke="none" stroke-width="1" fill="none" fill-rule="evenodd">
        <g id="ant-black" transform="translate(4.000000, 5.000000)" fill="#000000" fill-rule="nonzero">
            <path d="M23.1842339,10.9811964 L14.7472281,10.9811964 C14.7719298,10.7042186 14.7711813,10.4439555 14.7451228,10.166 L18.618807,8.63035425 C18.911345,8.51442308 19.1032047,8.23274291 19.1032047,7.91940283 L19.1032047,0.932338057 C19.1032047,0.509678138 18.758924,0.167052632 18.3342222,0.167052632 C17.9095205,0.167052632 17.5652398,0.509724696 17.5652398,0.932338057 L17.5652398,7.40050607 L14.3144327,8.68920445 C14.2325146,8.53481579 14.1410526,8.39001822 14.0411696,8.25560324 C15.0956257,7.71673279 15.2980117,6.75971862 15.2980117,6.10584818 C15.2980117,4.85258097 14.5808655,3.31660931 13.468117,2.54485223 L14.8378012,1.36435628 C15.1588304,1.08765789 15.1936842,0.604378543 14.9156959,0.284846154 C14.6376608,-0.0346396761 14.1520468,-0.0693259109 13.8309708,0.207325911 L11.976655,1.80545344 L10.1223392,0.207325911 C9.80130994,-0.0693724696 9.31564912,-0.0347327935 9.03761404,0.284846154 C8.75957895,0.604331984 8.79447953,1.08765789 9.11550877,1.36435628 L10.4848187,2.54447976 C9.37071345,3.31698178 8.65515789,4.85551417 8.65515789,6.10575506 C8.65515789,7.1754413 9.13978947,7.86376518 9.91293567,8.25392713 C9.81281871,8.38908704 9.72154386,8.53472267 9.63962573,8.68943725 L6.38797661,7.4003664 L6.38797661,0.932338057 C6.38797661,0.509678138 6.04369591,0.167052632 5.61899415,0.167052632 C5.1942924,0.167052632 4.8500117,0.509724696 4.8500117,0.932338057 L4.8500117,7.91940283 C4.8500117,8.23278947 5.04196491,8.51446964 5.33440936,8.63035425 L9.20832749,10.1660931 C9.18269006,10.4370182 9.1805848,10.6975142 9.20566082,10.9811964 L0.768982456,10.9811964 C0.344280702,10.9811964 0,11.3238684 0,11.7465283 C0,12.1691883 0.344280702,12.5118138 0.768982456,12.5118138 L9.65534503,12.5118138 C9.69955556,12.5931518 9.74638596,12.6717429 9.79583626,12.747587 L5.33450292,14.5162126 C5.04196491,14.6321437 4.85010526,14.9138239 4.85010526,15.227164 L4.85010526,22.2142287 C4.85010526,22.6368887 5.19438596,22.9795142 5.61908772,22.9795142 C6.04378947,22.9795142 6.38807018,22.6368887 6.38807018,22.2142287 L6.38807018,15.7461073 L8.99017544,14.7145526 C8.71953216,15.3331316 8.56711111,16.0409636 8.56711111,16.7849251 C8.56711111,19.0960526 10.0306901,21.0632045 11.9767018,21.0632045 C13.922386,21.0632045 15.3862924,19.0963785 15.3862924,16.7849251 C15.3862924,16.0410567 15.2339181,15.3332247 14.9632281,14.7145526 L17.5653333,15.7461073 L17.5653333,22.2142287 C17.5653333,22.6368887 17.909614,22.9795142 18.3343158,22.9795142 C18.7590175,22.9795142 19.1032982,22.6368887 19.1032982,22.2142287 L19.1032982,15.227164 C19.1032982,14.9137773 18.911345,14.6320972 18.6189006,14.5162126 L14.1570058,12.7474008 C14.206269,12.6715567 14.2531462,12.5930587 14.2971696,12.5118603 L23.1842807,12.5118603 C23.6089825,12.5118603 23.9532632,12.1692348 23.9532632,11.7465749 C23.9532632,11.323915 23.6089825,10.9811964 23.1842339,10.9811964 Z" id="Path"></path>
        </g>
    </g>
</svg>