<?xml version="1.0" encoding="UTF-8"?>
<svg width="32px" height="32px" viewBox="0 0 32 32" version="1.1" xmlns="http://www.w3.org/2000/svg" xmlns:xlink="http://www.w3.org/1999/xlink">
    <!-- Generator: Sketch 54.1 (76490) - https://sketchapp.com -->
    <title>fast-forward</title>
    <desc>Created with Sketch.</desc>
    <g id="fast-forward" stroke="none" stroke-width="1" fill="none" fill-rule="evenodd">
        <g transform="translate(1.000000, 1.000000)" fill="#2286C3" fill-rule="nonzero" id="Shape">
            <path d="M15,0 C6.729,0 0,6.729 0,15 C0,23.271 6.729,30 15,30 C23.271,30 30,23.271 30,15 C30,6.729 23.271,0 15,0 Z M27.7815,15.413 L16.7815,22.913 C16.6975,22.9705 16.5985,23 16.5,23 C16.42,23 16.34,22.981 16.2665,22.942 C16.1025,22.8555 16,22.6855 16,22.5 L16,15.946 L5.7815,22.913 C5.6975,22.9705 5.5985,23 5.5,23 C5.42,23 5.34,22.981 5.2665,22.942 C5.1025,22.8555 5,22.6855 5,22.5 L5,7.5 C5,7.3145 5.1025,7.1445 5.2665,7.058 C5.43,6.971 5.629,6.983 5.7815,7.087 L16,14.054 L16,7.5 C16,7.3145 16.1025,7.1445 16.2665,7.058 C16.43,6.971 16.629,6.983 16.7815,7.087 L27.7815,14.587 C27.9185,14.68 28,14.8345 28,15 C28,15.1655 27.9185,15.32 27.7815,15.413 Z"></path>
        </g>
    </g>
</svg>