<?xml version="1.0" encoding="UTF-8"?>
<svg width="320px" height="320px" viewBox="0 0 320 320" version="1.1" xmlns="http://www.w3.org/2000/svg" xmlns:xlink="http://www.w3.org/1999/xlink">
    <!-- Generator: Sketch 54.1 (76490) - https://sketchapp.com -->
    <title>grid</title>
    <desc>Created with Sketch.</desc>
    <g id="grid" stroke="none" stroke-width="1" fill="none" fill-rule="evenodd">
        <rect fill="#2286C3" x="0" y="0" width="320" height="320"></rect>
        <g id="Vertical-lines" transform="translate(16.000000, -21.000000)" stroke="#333333" stroke-linecap="square">
            <path d="M288.5,0 L288.5,362" id="Line-2-Copy-10"></path>
            <path d="M256.5,0 L256.5,362" id="Line-2-Copy-9"></path>
            <path d="M224.5,0 L224.5,362" id="Line-2-Copy-8"></path>
            <path d="M192.5,0 L192.5,362" id="Line-2-Copy-7"></path>
            <path d="M160.5,0 L160.5,362" id="Line-2-Copy-6"></path>
            <path d="M128.5,0 L128.5,362" id="Line-2-Copy-5"></path>
            <path d="M96.5,0 L96.5,362" id="Line-2-Copy-4"></path>
            <path d="M64.5,0 L64.5,362" id="Line-2-Copy-3"></path>
            <path d="M32.5,0 L32.5,362" id="Line-2-Copy"></path>
            <path d="M0.5,0 L0.5,362" id="Line-2"></path>
        </g>
        <g id="Horizontal-lines" transform="translate(-21.000000, 16.000000)" stroke="#333333" stroke-linecap="square">
            <path d="M0.5,288.5 L360.5,288.5" id="Line-3-Copy-11"></path>
            <path d="M0.5,256.5 L360.5,256.5" id="Line-3-Copy-10"></path>
            <path d="M0.5,224.5 L360.5,224.5" id="Line-3-Copy-9"></path>
            <path d="M0.5,192.5 L360.5,192.5" id="Line-3-Copy-8"></path>
            <path d="M0.5,160.5 L360.5,160.5" id="Line-3-Copy-7"></path>
            <path d="M0.5,128.5 L360.5,128.5" id="Line-3-Copy-6"></path>
            <path d="M0.5,96.5 L360.5,96.5" id="Line-3-Copy-5"></path>
            <path d="M0.5,64.5 L360.5,64.5" id="Line-3-Copy-4"></path>
            <path d="M0.5,32.5 L360.5,32.5" id="Line-3-Copy"></path>
            <path d="M0.5,0.5 L360.5,0.5" id="Line-3"></path>
        </g>
    </g>
</svg>