<?xml version="1.0" encoding="UTF-8"?>
<svg width="64px" height="64px" viewBox="0 0 64 64" version="1.1" xmlns="http://www.w3.org/2000/svg" xmlns:xlink="http://www.w3.org/1999/xlink">
    <!-- Generator: Sketch 55 (78076) - https://sketchapp.com -->
    <title>logo-langtons-ant</title>
    <desc>Created with Sketch.</desc>
    <g id="logo-langtons-ant" stroke="none" stroke-width="1" fill="none" fill-rule="evenodd">
        <circle id="Oval" fill="#2286C3" cx="32" cy="32" r="30"></circle>
        <g id="ant-black" transform="translate(11.000000, 12.000000)" fill="#333333" fill-rule="nonzero">
            <path d="M40.5724094,19.0977328 L25.8076491,19.0977328 C25.8508772,18.6160324 25.8495673,18.1634008 25.8039649,17.68 L32.5829123,15.0093117 C33.0948538,14.8076923 33.4306082,14.3178138 33.4306082,13.7728745 L33.4306082,1.62145749 C33.4306082,0.886396761 32.828117,0.290526316 32.0848889,0.290526316 C31.3416608,0.290526316 30.7391696,0.886477733 30.7391696,1.62145749 L30.7391696,12.8704453 L25.0502573,15.1116599 C24.9069006,14.8431579 24.7468421,14.591336 24.5720468,14.3575709 C26.417345,13.4204049 26.7715205,11.7560324 26.7715205,10.6188664 C26.7715205,8.43927126 25.5165146,5.76801619 23.5692047,4.42582996 L25.966152,2.37279352 C26.5279532,1.89157895 26.5889474,1.05109312 26.1024678,0.495384615 C25.6159064,-0.060242915 24.7660819,-0.120566802 24.2041988,0.360566802 L20.9591462,3.13991903 L17.7140936,0.360566802 C17.1522924,-0.120647773 16.302386,-0.0604048583 15.8158246,0.495384615 C15.3292632,1.05101215 15.3903392,1.89157895 15.9521404,2.37279352 L18.3484327,4.42518219 C16.3987485,5.76866397 15.1465263,8.44437247 15.1465263,10.6187045 C15.1465263,12.4790283 15.9946316,13.6761134 17.3476374,14.3546559 C17.1724327,14.5897166 17.0127018,14.842996 16.869345,15.1120648 L11.1789591,12.8702024 L11.1789591,1.62145749 C11.1789591,0.886396761 10.5764678,0.290526316 9.83323977,0.290526316 C9.0900117,0.290526316 8.48752047,0.886477733 8.48752047,1.62145749 L8.48752047,13.7728745 C8.48752047,14.3178947 8.8234386,14.8077733 9.33521637,15.0093117 L16.1145731,17.6801619 C16.0697076,18.151336 16.0660234,18.6043725 16.1099064,19.0977328 L1.3457193,19.0977328 C0.602491228,19.0977328 0,19.6936842 0,20.4287449 C0,21.1638057 0.602491228,21.7596761 1.3457193,21.7596761 L16.8968538,21.7596761 C16.9742222,21.9011336 17.0561754,22.0378138 17.1427135,22.1697166 L9.33538012,25.245587 C8.8234386,25.4472065 8.48768421,25.937085 8.48768421,26.4820243 L8.48768421,38.6334413 C8.48768421,39.368502 9.09017544,39.9643725 9.83340351,39.9643725 C10.5766316,39.9643725 11.1791228,39.368502 11.1791228,38.6334413 L11.1791228,27.3845344 L15.732807,25.5905263 C15.2591813,26.6663158 14.9924444,27.8973279 14.9924444,29.1911741 C14.9924444,33.2105263 17.5537076,36.6316599 20.9592281,36.6316599 C24.3641754,36.6316599 26.9260117,33.2110931 26.9260117,29.1911741 C26.9260117,27.8974899 26.6593567,26.6664777 26.1856491,25.5905263 L30.7393333,27.3845344 L30.7393333,38.6334413 C30.7393333,39.368502 31.3418246,39.9643725 32.0850526,39.9643725 C32.8282807,39.9643725 33.4307719,39.368502 33.4307719,38.6334413 L33.4307719,26.4820243 C33.4307719,25.937004 33.0948538,25.4471255 32.583076,25.245587 L24.7747602,22.1693927 C24.8609708,22.0374899 24.9430058,21.9009717 25.0200468,21.7597571 L40.5724912,21.7597571 C41.3157193,21.7597571 41.9182105,21.1638866 41.9182105,20.4288259 C41.9182105,19.6937652 41.3157193,19.0977328 40.5724094,19.0977328 Z" id="Path"></path>
        </g>
    </g>
</svg>