<?xml version="1.0" encoding="UTF-8"?>
<svg width="32px" height="32px" viewBox="0 0 32 32" version="1.1" xmlns="http://www.w3.org/2000/svg" xmlns:xlink="http://www.w3.org/1999/xlink">
    <!-- Generator: Sketch 54.1 (76490) - https://sketchapp.com -->
    <title>plus-100</title>
    <desc>Created with Sketch.</desc>
    <g id="plus-100" stroke="none" stroke-width="1" fill="none" fill-rule="evenodd">
        <path d="M16,1 C24.2707692,1 31,7.72865385 31,16 C31,24.2713462 24.2707692,31 16,31 C7.72923077,31 1,24.2713462 1,16 C1,7.72865385 7.72923077,1 16,1 Z M19.4482759,8.4137931 C19.7528276,8.4137931 20,8.16662069 20,7.86206897 C20,7.55751724 19.7528276,7.31034483 19.4482759,7.31034483 L16.5517241,7.31034483 L16.5517241,4.55172414 C16.5517241,4.24717241 16.3045517,4 16,4 C15.6954483,4 15.4482759,4.24717241 15.4482759,4.55172414 L15.4482759,7.31034483 L12.5517241,7.31034483 C12.2471724,7.31034483 12,7.55751724 12,7.86206897 C12,8.16662069 12.2471724,8.4137931 12.5517241,8.4137931 L15.4482759,8.4137931 L15.4482759,11.4482759 C15.4482759,11.7528276 15.6954483,12 16,12 C16.3045517,12 16.5517241,11.7528276 16.5517241,11.4482759 C16.5517241,10.4023178 16.5517241,9.61784917 16.5517241,9.09487011 C16.5517241,8.94351966 16.5517241,8.716494 16.5517241,8.4137931 L19.4482759,8.4137931 Z M9.33076172,24 L9.33076172,13.9033203 L5.81025391,14.2724609 L5.81025391,15.3115234 L7.97724609,15.2910156 L7.97724609,24 L9.33076172,24 Z M17.468457,20.4863281 L17.468457,17.5605469 C17.468457,16.4440048 17.1802112,15.5553418 16.6037109,14.8945312 C16.0272107,14.2337207 15.2558968,13.9033203 14.2897461,13.9033203 C13.3281527,13.9033203 12.5613961,14.2337207 11.9894531,14.8945312 C11.4175102,15.5553418 11.131543,16.4440048 11.131543,17.5605469 L11.131543,20.4863281 C11.131543,21.6119848 11.4197888,22.5029264 11.9962891,23.1591797 C12.5727893,23.815433 13.3418246,24.1435547 14.303418,24.1435547 C15.2695686,24.1435547 16.0386039,23.815433 16.6105469,23.1591797 C17.1824898,22.5029264 17.468457,21.6119848 17.468457,20.4863281 Z M16.1217773,17.2802734 L16.1217773,20.7597656 C16.1217773,21.4798213 15.9645524,22.0483378 15.6500977,22.465332 C15.335643,22.8823263 14.8867542,23.0908203 14.303418,23.0908203 C13.7291963,23.0908203 13.2814469,22.881187 12.9601562,22.4619141 C12.6388656,22.0426411 12.4782227,21.475264 12.4782227,20.7597656 L12.4782227,17.2802734 C12.4782227,16.5647751 12.6354476,15.9996766 12.9499023,15.5849609 C13.264357,15.1702453 13.7109672,14.9628906 14.2897461,14.9628906 C14.8730823,14.9628906 15.3242497,15.1702453 15.6432617,15.5849609 C15.9622737,15.9996766 16.1217773,16.5647751 16.1217773,17.2802734 Z M25.050293,20.4863281 L25.050293,17.5605469 C25.050293,16.4440048 24.7620472,15.5553418 24.1855469,14.8945312 C23.6090466,14.2337207 22.8377327,13.9033203 21.871582,13.9033203 C20.9099887,13.9033203 20.143232,14.2337207 19.5712891,14.8945312 C18.9993461,15.5553418 18.7133789,16.4440048 18.7133789,17.5605469 L18.7133789,20.4863281 C18.7133789,21.6119848 19.0016247,22.5029264 19.578125,23.1591797 C20.1546253,23.815433 20.9236606,24.1435547 21.8852539,24.1435547 C22.8514046,24.1435547 23.6204398,23.815433 24.1923828,23.1591797 C24.7643258,22.5029264 25.050293,21.6119848 25.050293,20.4863281 Z M23.7036133,17.2802734 L23.7036133,20.7597656 C23.7036133,21.4798213 23.5463883,22.0483378 23.2319336,22.465332 C22.9174789,22.8823263 22.4685902,23.0908203 21.8852539,23.0908203 C21.3110323,23.0908203 20.8632829,22.881187 20.5419922,22.4619141 C20.2207015,22.0426411 20.0600586,21.475264 20.0600586,20.7597656 L20.0600586,17.2802734 C20.0600586,16.5647751 20.2172836,15.9996766 20.5317383,15.5849609 C20.846193,15.1702453 21.2928031,14.9628906 21.871582,14.9628906 C22.4549183,14.9628906 22.9060856,15.1702453 23.2250977,15.5849609 C23.5441097,15.9996766 23.7036133,16.5647751 23.7036133,17.2802734 Z" id="Shape" fill="#2286C3" fill-rule="nonzero"></path>
    </g>
</svg>