<?xml version="1.0" encoding="UTF-8"?>
<svg width="32px" height="32px" viewBox="0 0 32 32" version="1.1" xmlns="http://www.w3.org/2000/svg" xmlns:xlink="http://www.w3.org/1999/xlink">
    <!-- Generator: Sketch 54.1 (76490) - https://sketchapp.com -->
    <title>plus-10</title>
    <desc>Created with Sketch.</desc>
    <g id="plus-10" stroke="none" stroke-width="1" fill="none" fill-rule="evenodd">
        <path d="M16,1 C24.2707692,1 31,7.72865385 31,16 C31,24.2713462 24.2707692,31 16,31 C7.72923077,31 1,24.2713462 1,16 C1,7.72865385 7.72923077,1 16,1 Z M11.5172414,16.862069 C11.7837241,16.862069 12,16.6457931 12,16.3793103 C12,16.1128276 11.7837241,15.8965517 11.5172414,15.8965517 L8.98275862,15.8965517 L8.98275862,13.4827586 C8.98275862,13.2162759 8.76648276,13 8.5,13 C8.23351724,13 8.01724138,13.2162759 8.01724138,13.4827586 L8.01724138,15.8965517 L5.48275862,15.8965517 C5.21627586,15.8965517 5,16.1128276 5,16.3793103 C5,16.6457931 5.21627586,16.862069 5.48275862,16.862069 L8.01724138,16.862069 L8.01724138,19.5172414 C8.01724138,19.7837241 8.23351724,20 8.5,20 C8.76648276,20 8.98275862,19.7837241 8.98275862,19.5172414 L8.98275862,16.862069 L11.5172414,16.862069 Z M17.3890625,22 L17.3890625,10.4609375 L12.7640625,10.8671875 L12.7640625,12.609375 L15.115625,12.609375 L15.115625,22 L17.3890625,22 Z M27.0875,17.8828125 L27.0875,14.75 C27.0875,13.4218684 26.7346389,12.3750038 26.0289062,11.609375 C25.3231735,10.8437462 24.3921875,10.4609375 23.2359375,10.4609375 C22.0744733,10.4609375 21.1434931,10.8437462 20.4429687,11.609375 C19.7424444,12.3750038 19.3921875,13.4218684 19.3921875,14.75 L19.3921875,17.8828125 C19.3921875,19.2161525 19.7437465,20.263017 20.446875,21.0234375 C21.1500035,21.783858 22.08489,22.1640625 23.2515625,22.1640625 C24.4078183,22.1640625 25.3361944,21.783858 26.0367187,21.0234375 C26.7372431,20.263017 27.0875,19.2161525 27.0875,17.8828125 Z M24.8140625,14.515625 L24.8140625,18.1015625 C24.8140625,18.8463579 24.6773451,19.4179668 24.4039062,19.8164062 C24.1304674,20.2148457 23.7463566,20.4140625 23.2515625,20.4140625 C22.7463516,20.4140625 22.3557305,20.2148457 22.0796875,19.8164062 C21.8036444,19.4179668 21.665625,18.8463579 21.665625,18.1015625 L21.665625,14.515625 C21.665625,13.7864547 21.8023424,13.2213562 22.0757812,12.8203125 C22.3492201,12.4192688 22.735935,12.21875 23.2359375,12.21875 C23.7307316,12.21875 24.1174465,12.4192688 24.3960937,12.8203125 C24.674741,13.2213562 24.8140625,13.7864547 24.8140625,14.515625 Z" id="Shape" fill="#2286C3" fill-rule="nonzero"></path>
    </g>
</svg>