<?xml version="1.0" encoding="UTF-8"?>
<svg width="32px" height="32px" viewBox="0 0 32 32" version="1.1" xmlns="http://www.w3.org/2000/svg" xmlns:xlink="http://www.w3.org/1999/xlink">
    <!-- Generator: Sketch 54.1 (76490) - https://sketchapp.com -->
    <title>skip</title>
    <desc>Created with Sketch.</desc>
    <g id="skip" stroke="none" stroke-width="1" fill="none" fill-rule="evenodd">
        <g id="004-next" transform="translate(1.000000, 1.000000)" fill="#FF6090" fill-rule="nonzero">
            <path d="M15,0 C6.729,0 0,6.729 0,15 C0,23.271 6.729,30 15,30 C23.271,30 30,23.271 30,15 C30,6.729 23.271,0 15,0 Z M18.7815,15.413 L7.7815,22.913 C7.697,22.9705 7.5985,23 7.5,23 C7.42,23 7.3395,22.981 7.2665,22.942 C7.1025,22.8555 7,22.6855 7,22.5 L7,7.5 C7,7.3145 7.1025,7.1445 7.2665,7.058 C7.43,6.971 7.6285,6.983 7.782,7.087 L18.782,14.587 C18.918,14.68 19,14.8345 19,15 C19,15.1655 18.918,15.32 18.7815,15.413 Z M23.5,23 L20,23 L20,7 L23.5,7 L23.5,23 Z" id="Shape"></path>
        </g>
    </g>
</svg>