<?xml version="1.0" encoding="UTF-8"?>
<svg width="32px" height="32px" viewBox="0 0 32 32" version="1.1" xmlns="http://www.w3.org/2000/svg" xmlns:xlink="http://www.w3.org/1999/xlink">
    <!-- Generator: Sketch 54.1 (76490) - https://sketchapp.com -->
    <title>plus-1000</title>
    <desc>Created with Sketch.</desc>
    <g id="plus-1000" stroke="none" stroke-width="1" fill="none" fill-rule="evenodd">
        <path d="M16,1 C24.2707692,1 31,7.72865385 31,16 C31,24.2713462 24.2707692,31 16,31 C7.72923077,31 1,24.2713462 1,16 C1,7.72865385 7.72923077,1 16,1 Z M19.4482759,8.4137931 C19.7528276,8.4137931 20,8.16662069 20,7.86206897 C20,7.55751724 19.7528276,7.31034483 19.4482759,7.31034483 L16.5517241,7.31034483 L16.5517241,4.55172414 C16.5517241,4.24717241 16.3045517,4 16,4 C15.6954483,4 15.4482759,4.24717241 15.4482759,4.55172414 L15.4482759,7.31034483 L12.5517241,7.31034483 C12.2471724,7.31034483 12,7.55751724 12,7.86206897 C12,8.16662069 12.2471724,8.4137931 12.5517241,8.4137931 L15.4482759,8.4137931 L15.4482759,11.4482759 C15.4482759,11.7528276 15.6954483,12 16,12 C16.3045517,12 16.5517241,11.7528276 16.5517241,11.4482759 C16.5517241,10.4023178 16.5517241,9.61784917 16.5517241,9.09487011 C16.5517241,8.94351966 16.5517241,8.716494 16.5517241,8.4137931 L19.4482759,8.4137931 Z M6.81914063,23 L6.81914063,13.6245117 L3.55009766,13.9672852 L3.55009766,14.9321289 L5.56230469,14.9130859 L5.56230469,23 L6.81914063,23 Z M14.2327148,19.7373047 L14.2327148,17.0205078 C14.2327148,15.9837188 13.965058,15.1585317 13.4297363,14.5449219 C12.8944146,13.931312 12.1781946,13.6245117 11.2810547,13.6245117 C10.3881466,13.6245117 9.67615825,13.931312 9.14506836,14.5449219 C8.61397846,15.1585317 8.3484375,15.9837188 8.3484375,17.0205078 L8.3484375,19.7373047 C8.3484375,20.7825573 8.61609433,21.6098602 9.15141602,22.2192383 C9.6867377,22.8286163 10.4008419,23.1333008 11.29375,23.1333008 C12.1908899,23.1333008 12.9049941,22.8286163 13.436084,22.2192383 C13.9671739,21.6098602 14.2327148,20.7825573 14.2327148,19.7373047 Z M12.9822266,16.7602539 L12.9822266,19.9912109 C12.9822266,20.6598341 12.8362319,21.1877422 12.5442383,21.5749512 C12.2522446,21.9621601 11.8354194,22.1557617 11.29375,22.1557617 C10.7605442,22.1557617 10.3447769,21.9611022 10.0464355,21.5717773 C9.74809421,21.1824525 9.59892578,20.6556023 9.59892578,19.9912109 L9.59892578,16.7602539 C9.59892578,16.0958626 9.74492042,15.5711282 10.0369141,15.1860352 C10.3289077,14.8009421 10.7436171,14.6083984 11.2810547,14.6083984 C11.8227241,14.6083984 12.2416652,14.8009421 12.5378906,15.1860352 C12.8341161,15.5711282 12.9822266,16.0958626 12.9822266,16.7602539 Z M21.2515625,19.7373047 L21.2515625,17.0205078 C21.2515625,15.9837188 20.9839057,15.1585317 20.448584,14.5449219 C19.9132623,13.931312 19.1970422,13.6245117 18.2999023,13.6245117 C17.4069942,13.6245117 16.6950059,13.931312 16.163916,14.5449219 C15.6328261,15.1585317 15.3672852,15.9837188 15.3672852,17.0205078 L15.3672852,19.7373047 C15.3672852,20.7825573 15.634942,21.6098602 16.1702637,22.2192383 C16.7055854,22.8286163 17.4196895,23.1333008 18.3125977,23.1333008 C19.2097376,23.1333008 19.9238417,22.8286163 20.4549316,22.2192383 C20.9860215,21.6098602 21.2515625,20.7825573 21.2515625,19.7373047 Z M20.0010742,16.7602539 L20.0010742,19.9912109 C20.0010742,20.6598341 19.8550796,21.1877422 19.5630859,21.5749512 C19.2710923,21.9621601 18.854267,22.1557617 18.3125977,22.1557617 C17.7793919,22.1557617 17.3636245,21.9611022 17.0652832,21.5717773 C16.7669419,21.1824525 16.6177734,20.6556023 16.6177734,19.9912109 L16.6177734,16.7602539 C16.6177734,16.0958626 16.7637681,15.5711282 17.0557617,15.1860352 C17.3477554,14.8009421 17.7624648,14.6083984 18.2999023,14.6083984 C18.8415717,14.6083984 19.2605128,14.8009421 19.5567383,15.1860352 C19.8529637,15.5711282 20.0010742,16.0958626 20.0010742,16.7602539 Z M28.2704102,19.7373047 L28.2704102,17.0205078 C28.2704102,15.9837188 28.0027533,15.1585317 27.4674316,14.5449219 C26.93211,13.931312 26.2158899,13.6245117 25.31875,13.6245117 C24.4258419,13.6245117 23.7138536,13.931312 23.1827637,14.5449219 C22.6516738,15.1585317 22.3861328,15.9837188 22.3861328,17.0205078 L22.3861328,19.7373047 C22.3861328,20.7825573 22.6537896,21.6098602 23.1891113,22.2192383 C23.724433,22.8286163 24.4385372,23.1333008 25.3314453,23.1333008 C26.2285852,23.1333008 26.9426894,22.8286163 27.4737793,22.2192383 C28.0048692,21.6098602 28.2704102,20.7825573 28.2704102,19.7373047 Z M27.0199219,16.7602539 L27.0199219,19.9912109 C27.0199219,20.6598341 26.8739272,21.1877422 26.5819336,21.5749512 C26.2899399,21.9621601 25.8731147,22.1557617 25.3314453,22.1557617 C24.7982395,22.1557617 24.3824722,21.9611022 24.0841309,21.5717773 C23.7857895,21.1824525 23.6366211,20.6556023 23.6366211,19.9912109 L23.6366211,16.7602539 C23.6366211,16.0958626 23.7826157,15.5711282 24.0746094,15.1860352 C24.366603,14.8009421 24.7813124,14.6083984 25.31875,14.6083984 C25.8604194,14.6083984 26.2793605,14.8009421 26.5755859,15.1860352 C26.8718114,15.5711282 27.0199219,16.0958626 27.0199219,16.7602539 Z" id="Path-2" fill="#2286C3" fill-rule="nonzero"></path>
    </g>
</svg>