<svg version="1" xmlns="http://www.w3.org/2000/svg" width="682.667" height="682.667" viewBox="0 0 512.000000 512.000000"><path d="M48.3 42c-7.1 4.3-6.8 2-6.8 56.2 0 45.8.1 48.9 1.9 52.2 3.6 6.6 3.1 6.6 56.2 6.7 30.7 0 48.9-.3 50.6-.9 1.4-.6 3.9-2.8 5.4-4.8l2.9-3.7V49.5l-2.4-3.4c-4.4-6.1-4.2-6.1-56.8-6.1-45.6 0-47.9.1-51 2zM204.5 41.9c-1.7 1-3.9 3.1-5 4.7-1.8 2.8-1.9 5.3-2 50.4-.1 27.5.3 48.8.8 50.5 1.2 3.8 3.4 6.3 7 8.2 2.4 1.2 10.6 1.4 50.7 1.4 26.5 0 48.8-.5 50.1-1 3-1.1 6.5-4.8 7.7-8.1.5-1.4.8-24.1.8-50.6-.1-53.3.1-51.1-6.9-55.4-3.1-1.9-5.4-2-51.7-2-45.5 0-48.7.1-51.5 1.9zM361 41.8c-1.9.9-4.3 3.2-5.4 5.1-1.8 3.2-1.9 5.7-1.9 52l-.1 48.8 2.3 3.1c4.4 6.3 3.2 6.2 56.1 6.2 53.7.1 52.9.2 56.8-6.8 2-3.6 2-4.8 1.9-52.4-.2-47.5-.2-48.7-2.3-51.5-4.7-6.4-4-6.3-56.4-6.3-43.2 0-47.8.2-51 1.8zM49.4 198.5c-1.7.7-4.2 2.8-5.5 4.6l-2.4 3.4-.1 48c-.2 54.6-.2 54.4 7.2 58.1 3.7 1.8 6.5 1.9 52 1.8h48.2l3.5-2.4c6.4-4.4 6.3-3.5 6.2-56.5 0-47.5-.1-48.1-2.2-51.5-4.2-6.8-1.8-6.5-55.3-6.7-37.9-.1-49.2.2-51.6 1.2zM207.5 197.7c-3.4.6-7.5 4.6-8.8 8.4-.9 2.6-1.2 16-1.2 51 .1 44.3.2 47.6 1.9 50.5 1 1.7 3.3 4 5 5 2.9 1.7 6.3 1.8 51.1 1.9 53.4 0 52.9.1 57-6.7 1.9-3.2 2-5.5 2-52.3v-49l-2.4-3.4c-4.3-5.9-4-5.9-55.6-5.8-25.8 0-47.9.2-49 .4zM361.6 198.6c-3.8 1.9-5.7 4.1-7 7.8-.7 2.2-1.1 18.4-1 50.9l.1 47.7 3 3.7c1.9 2.4 4.4 4.2 6.9 4.8 2.5.7 20.1 1.1 50.4 1 52.1-.1 51.2 0 54.9-7.3 1.8-3.5 1.9-6.3 1.7-52.4-.1-47.5-.1-48.7-2.2-51.5-4.5-6.2-3.8-6.1-56.4-6.1-38.2 0-48.4.3-50.4 1.4zM49.1 356.1c-2 .9-4.6 2.9-5.6 4.5-1.9 2.8-2 5.1-2.1 51.4-.1 44.8 0 48.8 1.7 52.1 3.8 7.6 1.6 7.3 55.4 7.5 54.6.1 54.4.2 58.1-7.3 1.8-3.7 1.9-6.3 1.9-51.8-.1-44.8-.2-48.2-1.9-51.1-1-1.7-3.3-4-5-5-2.9-1.7-6.2-1.8-51-1.9-42.3-.1-48.3.1-51.5 1.6zM207 355.3c-3.6.9-4.7 1.8-7.5 6.1-1.9 2.8-2 5.4-2 50.4 0 34 .3 48.5 1.2 51 1.4 4.3 4.1 6.8 8.4 7.9 1.9.5 24.8.9 50.9.8 44.8 0 47.7-.1 50.3-1.9 6.2-4.2 6.1-3.5 6.2-55.6.2-48.7 0-51.7-3.7-55.4-4-4-4.7-4-53.4-4.1-26 0-48.7.3-50.4.8zM360.6 356.3c-1.8 1.1-4.1 3.3-5.1 5.1-1.8 2.9-1.9 6.2-1.9 51.7.1 54.4-.1 52.6 7.3 56.6 3.4 1.9 5.9 2 52.1 1.9 54-.1 51.6.2 55.8-6.9 1.9-3.4 2-4.8 1.8-52.3-.1-46.2-.2-49.1-2-51.7-4.2-6.2-3.3-6.1-56.4-6.2-45.6 0-48.5.1-51.6 1.8z"/></svg>